<?xml version="1.0" encoding="UTF-8" standalone="no"?>
<svg
   width="1800"
   height="1024"
   viewBox="0 0 1800 1024"
   version="1.1"
   id="svg1"
   xmlns="http://www.w3.org/2000/svg"
   xmlns:svg="http://www.w3.org/2000/svg">
  <defs
     id="defs1" />
  <path
     d="m 538.75,29.025 c -2.664,1.636 -2.134,5.474 1.137,8.227 7.726,6.5 60.12,29.346 89.863,39.184 5.283,1.747 8.25,3.249 8.25,4.178 0,1.96 2.707,2.874 4.386,1.481 1.775,-1.473 4.284,-0.467 4.922,1.974 0.562,2.152 3.652,2.571 5.479,0.744 0.916,-0.916 1.44,-0.459 2.298,2 0.838,2.405 1.708,3.187 3.544,3.187 1.339,0 2.693,-0.675 3.009,-1.5 0.741,-1.929 3.362,-1.957 3.362,-0.035 0,2.594 3.42,3.629 6.006,1.818 2.242,-1.57 2.296,-1.548 1.706,0.709 -0.843,3.227 0.893,6.008 3.752,6.008 2.389,0 5.536,-2.314 5.536,-4.071 0,-0.511 0.45,-0.929 1,-0.929 0.55,0 1,1.07 1,2.378 0,3.508 2.455,5.191 5.53,3.79 1.358,-0.619 2.47,-1.585 2.47,-2.147 0,-0.561 0.436,-1.021 0.969,-1.021 0.532,0 0.708,0.678 0.39,1.508 -0.808,2.105 2.294,6.492 4.591,6.492 1.048,0 2.79,-1.125 3.871,-2.5 2.663,-3.384 4.272,-3.213 3.553,0.378 -0.716,3.581 1.076,7.122 3.604,7.122 2.196,0 5.022,-3.562 5.022,-6.329 0,-1.308 0.484,-1.699 1.582,-1.278 0.87,0.334 2.011,0.607 2.535,0.607 0.576,0 0.544,0.765 -0.082,1.934 -1.583,2.958 -1.243,5.568 0.989,7.588 1.966,1.779 2.104,1.773 4.75,-0.195 1.499,-1.115 2.87,-2.995 3.046,-4.177 0.231,-1.556 1.026,-2.15 2.875,-2.15 2.321,0 2.498,0.283 1.939,3.082 -0.81,4.048 0.808,6.918 3.901,6.918 2.735,0 6.465,-3.173 6.465,-5.5 0,-0.825 0.799,-1.5 1.776,-1.5 1.447,0 1.713,0.695 1.434,3.75 -0.746,8.173 6.25,9.909 9.618,2.386 2.042,-4.561 4.257,-4.437 3.506,0.196 -0.376,2.314 0.048,3.908 1.511,5.691 1.927,2.346 2.182,2.397 4.844,0.966 1.546,-0.83 3.486,-2.958 4.311,-4.728 1.957,-4.199 3.016,-4.134 2.322,0.141 -0.467,2.881 -0.152,3.663 2.063,5.115 2.403,1.574 2.812,1.584 5.039,0.125 1.333,-0.874 2.714,-2.501 3.068,-3.615 0.611,-1.926 2.524,-2.677 3.735,-1.467 0.308,0.308 -0.121,1.924 -0.952,3.591 -3.377,6.768 3.75,10.915 9.27,5.394 1.35,-1.35 2.455,-2.925 2.455,-3.5 0,-0.575 0.952,-1.045 2.115,-1.045 2.018,0 2.041,0.113 0.5,2.465 -2.128,3.248 -2.041,5.839 0.267,7.929 2.573,2.328 6.506,1.203 9.595,-2.744 1.76,-2.25 2.751,-2.822 3.533,-2.04 0.781,0.781 0.747,1.83 -0.123,3.738 -0.915,2.008 -0.931,3.259 -0.069,5.152 1.557,3.417 5.111,3.228 8.645,-0.461 l 2.837,-2.962 2.848,2.028 2.847,2.028 -3.051,2.567 c -2.184,1.838 -2.965,3.283 -2.748,5.083 0.643,5.325 7.451,5.49 10.634,0.257 1.268,-2.086 2.166,-2.661 3.179,-2.035 1.195,0.739 1.16,1.151 -0.229,2.686 -2.968,3.28 -3.801,6.834 -2.152,9.188 2.079,2.969 5.004,2.643 8.606,-0.959 l 3.08,-3.08 4.593,4.668 c 4.254,4.324 4.456,4.755 2.733,5.83 -8.37,5.226 -11.139,7.458 -13.298,10.722 -1.368,2.066 -3.82,4.309 -5.449,4.984 -1.629,0.675 -4.665,3.162 -6.747,5.527 -2.082,2.365 -4.948,4.592 -6.371,4.949 -1.422,0.357 -3.606,1.736 -4.854,3.065 -1.249,1.328 -2.803,2.415 -3.456,2.415 -1.553,0 -14.481,10.609 -17.844,14.644 -1.442,1.73 -2.621,3.846 -2.621,4.704 0,0.876 -1.892,2.395 -4.323,3.471 -2.983,1.319 -4.725,2.882 -5.619,5.04 -0.986,2.38 -2.242,3.383 -5.258,4.195 -2.608,0.702 -4.505,2.012 -5.549,3.831 -0.873,1.521 -3.02,3.704 -4.771,4.852 -2.367,1.552 -3.994,4.099 -6.338,9.925 -3.414,8.488 -3.747,10.916 -2.015,14.717 0.62,1.361 0.852,3.569 0.516,4.908 -0.561,2.233 -1.25,2.492 -8.352,3.136 -16.951,1.536 -42.867,7.747 -58.791,14.089 -3.3,1.315 -10.5,3.929 -16,5.81 -39.761,13.597 -69.536,26.689 -100,43.97 -36.846,20.902 -81.93,43.085 -136.5,67.164 -39.77,17.548 -104.226,49.184 -125.5,61.598 -14.441,8.427 -50.388,32.04 -65.678,43.144 -4.773,3.466 -15.94,11.702 -24.815,18.302 -8.875,6.6 -18.965,14.025 -22.423,16.5 -58.834,42.11 -87.796,68.693 -108.873,99.928 -6.225,9.225 -15.864,28.508 -19.162,38.332 -2.891,8.61 -4.466,20.363 -4.656,34.74 -0.128,9.637 0.115,11.113 2.957,17.952 4.32,10.398 9.079,16.977 20.65,28.548 12.728,12.728 26.651,23.125 49.694,37.11 37.661,22.858 58.163,31.732 97.902,42.378 8.472,2.27 21.254,5.862 28.404,7.983 40.365,11.972 83.548,18.01 118,16.499 14.167,-0.622 21.704,-1.881 33.5,-5.6 10.725,-3.38 20.234,-5.97 20.595,-5.608 0.187,0.187 0.814,4.521 1.393,9.63 1.587,14.007 8.187,31.156 16.897,43.903 9.552,13.979 35.344,35.154 61.242,50.279 7.677,4.484 25.571,12.071 41.373,17.542 18.13,6.278 61.909,14.415 77.22,14.352 13.549,-0.055 36.898,-4.37 51.28,-9.476 2.475,-0.879 13.725,-4.474 25,-7.99 19.846,-6.188 40.966,-14.604 69,-27.496 7.425,-3.414 16.875,-7.546 21,-9.181 7.767,-3.079 16.48,-8.128 17.763,-10.293 0.406,-0.683 4.078,-4.027 8.161,-7.43 7.006,-5.84 13.193,-12.324 19.233,-20.157 l 2.656,-3.445 -0.156,3.362 c -0.202,4.327 2.159,6.11 5.629,4.253 4.045,-2.165 6.766,-1.083 8.511,3.385 1.826,4.674 2.978,5.702 5.666,5.051 1.08,-0.261 2.73,0.219 3.667,1.067 1.323,1.197 2.161,1.296 3.752,0.445 1.77,-0.947 2.255,-0.698 3.563,1.83 1.777,3.437 3.229,4.125 6.305,2.988 1.237,-0.457 3.263,-0.457 4.5,0 3.076,1.137 4.528,0.449 6.305,-2.988 1.308,-2.528 1.793,-2.777 3.563,-1.83 1.591,0.851 2.429,0.752 3.752,-0.445 0.937,-0.848 2.587,-1.328 3.667,-1.067 2.688,0.651 3.84,-0.377 5.666,-5.051 1.745,-4.468 4.466,-5.55 8.511,-3.385 3.47,1.857 5.831,0.074 5.629,-4.253 l -0.156,-3.362 2.656,3.445 c 6.04,7.833 12.227,14.317 19.233,20.157 4.083,3.403 7.755,6.747 8.161,7.43 1.283,2.165 9.996,7.214 17.763,10.293 4.125,1.635 13.575,5.767 21,9.181 28.034,12.892 49.154,21.308 69,27.496 11.275,3.516 22.525,7.111 25,7.99 14.382,5.106 37.731,9.421 51.28,9.476 15.311,0.063 59.09,-8.074 77.22,-14.352 15.802,-5.471 33.696,-13.058 41.373,-17.542 25.898,-15.125 51.69,-36.3 61.242,-50.279 8.71,-12.747 15.31,-29.896 16.897,-43.903 0.579,-5.109 1.206,-9.443 1.393,-9.63 0.361,-0.362 9.87,2.228 20.595,5.608 11.796,3.719 19.333,4.978 33.5,5.6 34.452,1.511 77.635,-4.527 118,-16.499 7.15,-2.121 19.932,-5.713 28.404,-7.983 39.739,-10.646 60.241,-19.52 97.902,-42.378 23.007,-13.963 36.939,-24.362 49.719,-37.11 11.509,-11.481 17.098,-19.364 21.064,-29.71 2.435,-6.351 2.77,-8.514 2.6,-16.79 -0.479,-23.338 -2.892,-33.272 -13.119,-54.002 -14.231,-28.847 -35.596,-53.473 -72.278,-83.309 -6.253,-5.087 -37.368,-28.526 -47.376,-35.689 -3.458,-2.475 -13.548,-9.9 -22.423,-16.5 -8.875,-6.6 -20.042,-14.836 -24.815,-18.302 -15.29,-11.104 -51.237,-34.717 -65.678,-43.144 -21.274,-12.414 -85.73,-44.05 -125.5,-61.598 -54.57,-24.079 -99.654,-46.262 -136.5,-67.164 -30.464,-17.281 -60.239,-30.373 -100,-43.97 -5.5,-1.881 -12.7,-4.495 -16,-5.81 -15.924,-6.342 -41.84,-12.553 -58.791,-14.089 -7.102,-0.644 -7.791,-0.903 -8.352,-3.136 -0.336,-1.339 -0.104,-3.547 0.516,-4.908 1.732,-3.801 1.399,-6.229 -2.015,-14.717 -2.344,-5.826 -3.971,-8.373 -6.338,-9.925 -1.751,-1.148 -3.898,-3.331 -4.771,-4.852 -1.044,-1.819 -2.941,-3.129 -5.549,-3.831 -3.016,-0.812 -4.272,-1.815 -5.258,-4.195 -0.894,-2.158 -2.636,-3.721 -5.619,-5.04 -2.431,-1.076 -4.323,-2.595 -4.323,-3.471 0,-0.858 -1.179,-2.974 -2.621,-4.704 C 985.016,201.609 972.088,191 970.535,191 c -0.653,0 -2.207,-1.087 -3.456,-2.415 -1.248,-1.329 -3.432,-2.708 -4.854,-3.065 -1.423,-0.357 -4.289,-2.584 -6.371,-4.949 -2.082,-2.365 -5.118,-4.852 -6.747,-5.527 -1.629,-0.675 -4.081,-2.918 -5.449,-4.984 -2.159,-3.264 -4.928,-5.496 -13.298,-10.722 -1.723,-1.075 -1.521,-1.506 2.733,-5.83 l 4.593,-4.668 3.08,3.08 c 3.602,3.602 6.527,3.928 8.606,0.959 1.649,-2.354 0.816,-5.908 -2.152,-9.188 -1.389,-1.535 -1.424,-1.947 -0.229,-2.686 1.013,-0.626 1.911,-0.051 3.179,2.035 3.183,5.233 9.991,5.068 10.634,-0.257 0.217,-1.8 -0.564,-3.245 -2.748,-5.083 l -3.051,-2.567 2.847,-2.028 2.848,-2.028 2.837,2.962 c 3.534,3.689 7.088,3.878 8.645,0.461 0.862,-1.893 0.846,-3.144 -0.069,-5.152 -0.87,-1.908 -0.904,-2.957 -0.123,-3.738 0.782,-0.782 1.773,-0.21 3.533,2.04 3.089,3.947 7.022,5.072 9.595,2.744 2.308,-2.09 2.395,-4.681 0.267,-7.929 -1.541,-2.352 -1.518,-2.465 0.5,-2.465 1.163,0 2.115,0.47 2.115,1.045 0,0.575 1.105,2.15 2.455,3.5 5.52,5.521 12.647,1.374 9.27,-5.394 -0.831,-1.667 -1.26,-3.283 -0.952,-3.591 1.211,-1.21 3.124,-0.459 3.735,1.467 0.354,1.114 1.735,2.741 3.068,3.615 2.227,1.459 2.636,1.449 5.039,-0.125 2.215,-1.452 2.53,-2.234 2.063,-5.115 -0.694,-4.275 0.365,-4.34 2.322,-0.141 0.825,1.77 2.765,3.898 4.311,4.728 2.662,1.431 2.917,1.38 4.844,-0.966 1.463,-1.783 1.887,-3.377 1.511,-5.691 -0.751,-4.633 1.464,-4.757 3.506,-0.196 3.368,7.523 10.364,5.787 9.618,-2.386 -0.279,-3.055 -0.013,-3.75 1.434,-3.75 0.977,0 1.776,0.675 1.776,1.5 0,2.327 3.73,5.5 6.465,5.5 3.093,0 4.711,-2.87 3.901,-6.918 -0.559,-2.799 -0.382,-3.082 1.939,-3.082 1.849,0 2.644,0.594 2.875,2.15 0.176,1.182 1.547,3.062 3.046,4.177 2.646,1.968 2.784,1.974 4.75,0.195 2.232,-2.02 2.572,-4.63 0.989,-7.588 -0.626,-1.169 -0.658,-1.934 -0.082,-1.934 0.524,0 1.665,-0.273 2.535,-0.607 1.098,-0.421 1.582,-0.03 1.582,1.278 0,2.767 2.826,6.329 5.022,6.329 2.528,0 4.32,-3.541 3.604,-7.122 -0.719,-3.591 0.89,-3.762 3.553,-0.378 1.081,1.375 2.823,2.5 3.871,2.5 2.297,0 5.399,-4.387 4.591,-6.492 -0.318,-0.83 -0.142,-1.508 0.39,-1.508 0.533,0 0.969,0.46 0.969,1.021 0,0.562 1.112,1.528 2.47,2.147 3.075,1.401 5.53,-0.282 5.53,-3.79 0,-1.308 0.45,-2.378 1,-2.378 0.55,0 1,0.418 1,0.929 0,1.757 3.147,4.071 5.536,4.071 2.859,0 4.595,-2.781 3.752,-6.008 -0.59,-2.257 -0.536,-2.279 1.706,-0.709 2.586,1.811 6.006,0.776 6.006,-1.818 0,-1.922 2.621,-1.894 3.362,0.035 0.316,0.825 1.67,1.5 3.009,1.5 1.836,0 2.706,-0.782 3.544,-3.187 0.858,-2.459 1.382,-2.916 2.298,-2 1.827,1.827 4.917,1.408 5.479,-0.744 0.638,-2.441 3.147,-3.447 4.922,-1.974 1.679,1.393 4.386,0.479 4.386,-1.481 0,-0.929 2.967,-2.431 8.25,-4.178 29.743,-9.838 82.137,-32.684 89.863,-39.184 5.424,-4.564 2.553,-10.109 -4.631,-8.943 -1.784,0.29 -9.165,3.267 -16.403,6.617 -20.921,9.682 -58.691,24.293 -82.579,31.943 -42.002,13.451 -95.833,26.636 -133,32.577 -16.708,2.67 -29.115,6.216 -40.078,11.453 -11.96,5.713 -26.147,14.619 -31.781,19.95 -4.93,4.665 -14.277,16.257 -15.795,19.589 -1.481,3.251 -1.846,3.217 -5.409,-0.508 -1.615,-1.689 -4.287,-3.881 -5.937,-4.872 -3.712,-2.229 -13.335,-3.44 -15.179,-1.91 -0.958,0.796 -1.684,0.796 -2.642,0 -1.844,-1.53 -11.467,-0.319 -15.179,1.91 -1.65,0.991 -4.322,3.183 -5.937,4.872 -3.563,3.725 -3.928,3.759 -5.409,0.508 -1.518,-3.332 -10.865,-14.924 -15.795,-19.589 -5.634,-5.331 -19.821,-14.237 -31.781,-19.95 C 805.615,105.662 793.208,102.116 776.5,99.446 739.333,93.505 685.502,80.32 643.5,66.869 619.575,59.206 581.835,44.605 560.833,34.885 547.224,28.587 541.806,27.149 538.75,29.025 m 209.75,242.331 -5,1.164 0.197,4.49 c 0.109,2.47 0.487,6.098 0.839,8.064 0.615,3.427 0.381,3.797 -5.697,8.977 -3.487,2.971 -9.864,8.676 -14.172,12.676 -8.563,7.951 -11.883,9.057 -15.705,5.235 -1.828,-1.828 -1.969,-2.809 -1.363,-9.496 0.512,-5.641 0.294,-8.493 -0.892,-11.712 -0.862,-2.34 -1.711,-5.033 -1.887,-5.986 -0.285,-1.539 -1.151,-1.37 -7.82,1.528 -4.125,1.792 -12.788,5.259 -19.25,7.705 -6.462,2.445 -11.75,4.773 -11.75,5.172 0,0.399 1.552,1.909 3.449,3.356 1.896,1.446 3.944,4.131 4.549,5.965 1.47,4.455 0.126,7.512 -9.8,22.272 -11.241,16.715 -13.854,21.379 -16.159,28.843 -2.738,8.863 -2.605,10.158 1.576,15.391 3.419,4.279 3.572,4.795 3.116,10.5 -0.263,3.3 -2.176,11.096 -4.251,17.323 -3.217,9.658 -5.203,13.483 -13.501,26 -15.096,22.774 -26.373,34.618 -38.713,40.66 -7.146,3.499 -16.512,4.475 -20.945,2.183 -3.192,-1.651 -6.321,-6.923 -6.321,-10.651 0,-3.048 3.674,-17.113 6.034,-23.1 2.526,-6.409 2.521,-6.442 -1.081,-7.935 -1.676,-0.694 -3.701,-2.526 -4.5,-4.071 -2.76,-5.337 -1.844,-8.891 6.547,-25.409 4.4,-8.662 8,-16.08 8,-16.485 0,-0.405 -2.737,-0.686 -6.083,-0.626 -5.491,0.1 -6.317,-0.162 -8.5,-2.695 -3.185,-3.697 -3.071,-5.37 1.173,-17.194 2.799,-7.798 3.492,-11.051 3.144,-14.772 -0.244,-2.625 -0.742,-5.07 -1.106,-5.434 -0.364,-0.363 -4.367,1.315 -8.895,3.731 -4.528,2.416 -19.883,10.324 -34.121,17.573 -19.153,9.75 -25.373,13.343 -23.908,13.808 1.089,0.346 3.054,1.772 4.367,3.17 2.109,2.245 2.396,3.516 2.453,10.883 0.079,10.121 0.975,11.541 7.283,11.541 8.466,0 16.205,2.917 21.325,8.036 3.993,3.994 4.856,5.614 6.25,11.746 1.998,8.785 2.024,12.881 0.145,22.88 -1.759,9.359 -10.701,27.726 -17.277,35.486 -2.337,2.758 -4.25,5.808 -4.25,6.777 0,3.206 3.955,13.328 8.473,21.683 5.637,10.425 11.435,24.687 12.175,29.943 0.707,5.031 -1.745,14.975 -5.388,21.844 -3.685,6.949 -15.398,18.41 -24.099,23.579 -3.943,2.342 -10.88,5.55 -15.415,7.129 -10.545,3.67 -18.151,3.744 -38.673,0.377 -14.409,-2.365 -16.293,-2.945 -30.538,-9.401 -19.514,-8.844 -30.161,-12.264 -38.584,-12.392 -5.614,-0.086 -7.676,0.435 -14.436,3.645 -4.337,2.06 -10.41,5.469 -13.495,7.574 -7.027,4.797 -9.118,5.462 -12.429,3.953 -3.358,-1.529 -4.009,-4.252 -3.288,-13.73 1.559,-20.491 -8.203,-50.243 -20.044,-61.088 -4.942,-4.527 -5.445,-5.359 -4.899,-8.092 0.335,-1.676 2.625,-5.521 5.088,-8.545 5.65,-6.935 6.407,-10.545 3.588,-17.099 C 331.784,473.071 324.505,466 321.368,466 c -0.964,0 -4.928,1.875 -8.81,4.166 -7.224,4.264 -42.19,27.514 -55.433,36.858 -7.955,5.613 -8.02,6.359 -0.645,7.499 6.792,1.05 17.657,5.608 21.433,8.99 6.358,5.697 9.663,6.86 19.683,6.927 10.534,0.07 11.966,0.832 12.889,6.868 2.927,19.13 3.718,21.861 8.275,28.563 2.48,3.646 6.923,9.398 9.874,12.783 8.364,9.592 7.306,13.162 -4.884,16.472 -4.262,1.157 -7.75,2.428 -7.75,2.824 0,0.396 3.855,2.932 8.567,5.635 10.526,6.039 16.369,10.084 17.022,11.786 0.272,0.71 -0.936,5.248 -2.686,10.083 -7.27,20.093 -29.757,42.015 -59.403,57.911 -17.552,9.411 -30.787,13.267 -41.969,12.228 -11.576,-1.076 -17.957,-5.486 -19.899,-13.752 -0.942,-4.013 2.145,-18.448 5.296,-24.759 4.179,-8.372 6.412,-18.877 5.856,-27.547 -0.628,-9.787 -2.818,-13.53 -8.811,-15.059 -5.944,-1.516 -7.89,-2.63 -16.072,-9.194 -4.447,-3.568 -8.257,-7.738 -10.661,-11.667 -3.667,-5.996 -3.735,-6.291 -3.495,-15.115 0.135,-4.95 0.641,-12.15 1.124,-16 0.483,-3.85 0.791,-7.106 0.685,-7.236 -0.432,-0.529 -26.022,18.994 -38.914,29.689 -12.443,10.321 -13.631,11.58 -12.032,12.75 1.953,1.428 2.606,1.539 9.892,1.692 4.828,0.101 5.01,0.211 5.301,3.19 0.183,1.878 -0.306,3.589 -1.25,4.373 -3.97,3.295 -0.523,7.566 5.793,7.177 2.475,-0.152 5.921,0.529 8.486,1.678 4.234,1.895 4.396,1.896 8.196,0.06 7.824,-3.78 11.978,-2.196 15.553,5.932 1.808,4.112 5.028,8.236 11.585,14.836 10.216,10.285 10.143,10.023 5.955,21.479 -3.925,10.733 -6.123,23.686 -5.921,34.88 0.168,9.317 -0.191,11.796 -3.188,22 -2.63,8.953 -3.393,13.405 -3.444,20.099 l -0.066,8.599 3.433,-0.947 c 1.888,-0.52 6.877,-0.79 11.086,-0.599 6.491,0.295 8.287,0.788 11.834,3.246 l 4.182,2.898 3.567,-1.898 c 1.962,-1.044 9.199,-6.623 16.081,-12.398 6.883,-5.775 15.957,-13.109 20.166,-16.297 4.208,-3.189 10.164,-7.784 13.235,-10.212 7.763,-6.137 14.451,-9.35 21.013,-10.095 7.628,-0.866 11.39,1.097 19.102,9.966 3.414,3.926 9.407,10.513 13.32,14.638 3.912,4.125 9.807,11.1 13.1,15.5 3.292,4.4 7.538,10.03 9.434,12.51 10.252,13.415 19.867,35.427 23.801,54.49 2.441,11.829 3.682,32.087 2.369,38.661 -0.903,4.52 -0.854,4.676 1.644,5.154 4.754,0.909 20.555,-1.218 29.133,-3.921 4.675,-1.473 12.152,-3.648 16.615,-4.833 4.463,-1.184 9.188,-2.855 10.5,-3.713 1.312,-0.857 4.261,-2.515 6.555,-3.683 7.354,-3.746 26.152,-18.727 42.33,-33.734 36.241,-33.619 47.901,-45.546 83,-84.903 6.325,-7.092 13.778,-15.4 16.563,-18.461 5.386,-5.922 25.435,-31.207 29.391,-37.067 1.3,-1.925 3.607,-4.85 5.126,-6.5 1.52,-1.65 5.254,-6.487 8.298,-10.75 5.523,-7.733 5.529,-7.75 2.828,-7.762 -4.646,-0.02 -26.097,-5.517 -40.36,-10.342 -7.509,-2.541 -17.409,-5.501 -22,-6.58 -24.983,-5.868 -31.191,-11.336 -27.47,-24.196 0.854,-2.954 2.454,-8.539 3.554,-12.412 1.101,-3.872 3.862,-9.921 6.137,-13.441 9.194,-14.224 14.177,-18.586 42.452,-37.162 9.303,-6.111 17.689,-12.434 20,-15.079 2.357,-2.696 6.021,-9.182 8.981,-15.896 6.672,-15.134 10.447,-20.721 22.351,-33.08 16.085,-16.7 22.131,-18.742 39.649,-13.39 16.216,4.955 29.673,13.716 41.44,26.98 7.683,8.661 8.553,9.351 9.712,7.696 2.091,-2.985 19.348,-33.499 19.348,-34.212 0,-0.361 -1.094,-0.932 -2.431,-1.267 -2.44,-0.613 -14.532,-15.668 -17.956,-22.357 -0.916,-1.788 -2.048,-3.25 -2.517,-3.25 -0.47,0 -1.416,-1.357 -2.103,-3.016 -1.08,-2.609 -0.944,-3.859 1.007,-9.25 1.241,-3.429 3.389,-8.484 4.772,-11.234 3.296,-6.549 6.618,-16.343 10.323,-30.433 1.654,-6.289 3.849,-13.489 4.879,-16 1.029,-2.512 2.135,-6.167 2.458,-8.123 0.322,-1.956 2.832,-7.206 5.577,-11.667 5.45,-8.855 5.652,-9.484 3.602,-11.185 -2.117,-1.757 -2.547,-5.988 -1.097,-10.803 1.127,-3.747 1.088,-4.779 -0.284,-7.531 -1.526,-3.059 -1.457,-3.568 1.707,-12.522 1.814,-5.134 3.04,-9.592 2.724,-9.908 -1.283,-1.284 -3.739,0.814 -4.313,3.684 -0.595,2.973 -3.595,5.988 -5.96,5.988 -0.641,0 -2.189,-0.828 -3.438,-1.839 -1.786,-1.446 -2.257,-2.814 -2.203,-6.394 0.038,-2.505 0.61,-5.565 1.271,-6.8 0.661,-1.235 1.571,-3.533 2.022,-5.106 0.728,-2.537 0.574,-2.85 -1.36,-2.765 -1.199,0.053 -4.43,0.62 -7.18,1.26 m 278.46,1.505 c 0.451,1.573 1.361,3.871 2.022,5.106 0.661,1.235 1.233,4.295 1.271,6.8 0.054,3.58 -0.417,4.948 -2.203,6.394 -1.249,1.011 -2.797,1.839 -3.438,1.839 -2.365,0 -5.365,-3.015 -5.96,-5.988 -0.574,-2.87 -3.03,-4.968 -4.313,-3.684 -0.316,0.316 0.91,4.774 2.724,9.908 3.164,8.954 3.233,9.463 1.707,12.522 -1.372,2.752 -1.411,3.784 -0.284,7.531 1.45,4.815 1.02,9.046 -1.097,10.803 -2.05,1.701 -1.848,2.33 3.602,11.185 2.745,4.461 5.255,9.711 5.577,11.667 0.323,1.956 1.429,5.611 2.458,8.123 1.03,2.511 3.225,9.711 4.879,16 3.705,14.09 7.027,23.884 10.323,30.433 1.383,2.75 3.531,7.805 4.772,11.234 1.951,5.391 2.087,6.641 1.007,9.25 -0.687,1.659 -1.633,3.016 -2.103,3.016 -0.469,0 -1.601,1.462 -2.517,3.25 -3.424,6.689 -15.516,21.744 -17.956,22.357 -1.337,0.335 -2.431,0.906 -2.431,1.267 0,0.713 17.257,31.227 19.348,34.212 1.159,1.655 2.029,0.965 9.712,-7.696 11.767,-13.264 25.224,-22.025 41.44,-26.98 17.518,-5.352 23.564,-3.31 39.649,13.39 11.904,12.359 15.679,17.946 22.351,33.08 2.96,6.714 6.624,13.2 8.981,15.896 2.311,2.645 10.697,8.968 20,15.079 28.275,18.576 33.258,22.938 42.452,37.162 2.275,3.52 5.036,9.569 6.137,13.441 1.1,3.873 2.7,9.458 3.554,12.412 3.721,12.86 -2.487,18.328 -27.47,24.196 -4.591,1.079 -14.491,4.039 -22,6.58 -14.263,4.825 -35.714,10.322 -40.36,10.342 -2.701,0.012 -2.695,0.029 2.828,7.762 3.044,4.263 6.778,9.1 8.298,10.75 1.519,1.65 3.826,4.575 5.126,6.5 3.956,5.86 24.005,31.145 29.391,37.067 2.785,3.061 10.238,11.369 16.563,18.461 35.099,39.357 46.759,51.284 83,84.903 16.178,15.007 34.976,29.988 42.33,33.734 2.294,1.168 5.243,2.826 6.555,3.683 1.312,0.858 6.037,2.529 10.5,3.713 4.463,1.185 11.94,3.36 16.615,4.833 8.578,2.703 24.379,4.83 29.133,3.921 2.498,-0.478 2.547,-0.634 1.644,-5.154 -1.313,-6.574 -0.072,-26.832 2.369,-38.661 3.934,-19.063 13.549,-41.075 23.801,-54.49 1.896,-2.48 6.142,-8.11 9.434,-12.51 3.293,-4.4 9.188,-11.375 13.1,-15.5 3.913,-4.125 9.906,-10.712 13.32,-14.638 7.712,-8.869 11.474,-10.832 19.102,-9.966 6.562,0.745 13.25,3.958 21.013,10.095 3.071,2.428 9.027,7.023 13.235,10.212 4.209,3.188 13.283,10.522 20.166,16.297 6.882,5.775 14.119,11.354 16.081,12.398 l 3.567,1.898 4.182,-2.898 c 3.547,-2.458 5.343,-2.951 11.834,-3.246 4.209,-0.191 9.198,0.079 11.086,0.599 l 3.433,0.947 -0.066,-8.599 c -0.051,-6.694 -0.814,-11.146 -3.444,-20.099 -2.997,-10.204 -3.356,-12.683 -3.188,-22 0.202,-11.194 -1.996,-24.147 -5.921,-34.88 -4.188,-11.456 -4.261,-11.194 5.955,-21.479 6.557,-6.6 9.777,-10.724 11.585,-14.836 3.575,-8.128 7.729,-9.712 15.553,-5.932 3.8,1.836 3.962,1.835 8.196,-0.06 2.565,-1.149 6.011,-1.83 8.486,-1.678 6.316,0.389 9.763,-3.882 5.793,-7.177 -0.944,-0.784 -1.433,-2.495 -1.25,-4.373 0.291,-2.979 0.473,-3.089 5.301,-3.19 7.286,-0.153 7.939,-0.264 9.892,-1.692 1.599,-1.17 0.411,-2.429 -12.03,-12.75 -13.269,-11.009 -38.451,-30.244 -38.895,-29.71 -0.117,0.141 0.181,3.407 0.664,7.257 0.483,3.85 0.989,11.05 1.124,16 0.24,8.824 0.172,9.119 -3.495,15.115 -2.404,3.929 -6.214,8.099 -10.661,11.667 -8.182,6.564 -10.128,7.678 -16.072,9.194 -5.993,1.529 -8.183,5.272 -8.811,15.059 -0.556,8.67 1.677,19.175 5.856,27.547 3.151,6.311 6.238,20.746 5.296,24.759 -1.942,8.266 -8.323,12.676 -19.899,13.752 -11.182,1.039 -24.417,-2.817 -41.969,-12.228 -29.646,-15.896 -52.133,-37.818 -59.403,-57.911 -1.75,-4.835 -2.958,-9.373 -2.686,-10.083 0.653,-1.702 6.496,-5.747 17.022,-11.786 4.712,-2.703 8.567,-5.239 8.567,-5.635 0,-0.396 -3.487,-1.667 -7.75,-2.824 -12.19,-3.31 -13.248,-6.88 -4.884,-16.472 2.951,-3.385 7.394,-9.137 9.874,-12.783 4.557,-6.702 5.348,-9.433 8.275,-28.563 0.923,-6.036 2.355,-6.798 12.889,-6.868 10.02,-0.067 13.325,-1.23 19.683,-6.927 3.776,-3.382 14.641,-7.94 21.433,-8.99 7.375,-1.14 7.31,-1.886 -0.645,-7.499 -13.243,-9.344 -48.209,-32.594 -55.433,-36.858 -3.882,-2.291 -7.846,-4.166 -8.81,-4.166 -3.137,0 -10.416,7.071 -12.668,12.305 -2.819,6.554 -2.062,10.164 3.588,17.099 2.463,3.024 4.753,6.869 5.088,8.545 0.546,2.733 0.043,3.565 -4.899,8.092 -11.841,10.845 -21.603,40.597 -20.044,61.088 0.721,9.478 0.07,12.201 -3.288,13.73 -3.311,1.509 -5.402,0.844 -12.429,-3.953 -3.085,-2.105 -9.158,-5.514 -13.495,-7.574 -6.76,-3.21 -8.822,-3.731 -14.436,-3.645 -8.423,0.128 -19.07,3.548 -38.584,12.392 -14.245,6.456 -16.129,7.036 -30.538,9.401 -20.522,3.367 -28.128,3.293 -38.673,-0.377 -4.535,-1.579 -11.472,-4.787 -15.415,-7.129 -8.701,-5.169 -20.414,-16.63 -24.099,-23.579 -3.643,-6.869 -6.095,-16.813 -5.388,-21.844 0.74,-5.256 6.538,-19.518 12.175,-29.943 4.518,-8.355 8.473,-18.477 8.473,-21.683 0,-0.969 -1.912,-4.019 -4.25,-6.777 -6.576,-7.76 -15.518,-26.127 -17.277,-35.486 -1.879,-9.999 -1.853,-14.095 0.145,-22.88 1.394,-6.132 2.257,-7.752 6.25,-11.746 5.12,-5.119 12.859,-8.036 21.325,-8.036 6.308,0 7.204,-1.42 7.283,-11.541 0.057,-7.367 0.344,-8.638 2.453,-10.883 1.313,-1.398 3.278,-2.824 4.367,-3.17 1.465,-0.465 -4.755,-4.058 -23.908,-13.808 -14.238,-7.249 -29.593,-15.157 -34.121,-17.573 -4.528,-2.416 -8.531,-4.094 -8.895,-3.731 -0.364,0.364 -0.862,2.809 -1.106,5.434 -0.348,3.721 0.345,6.974 3.144,14.772 4.244,11.824 4.358,13.497 1.173,17.194 -2.183,2.533 -3.009,2.795 -8.5,2.695 -3.346,-0.06 -6.083,0.221 -6.083,0.626 0,0.405 3.6,7.823 8,16.485 8.391,16.518 9.307,20.072 6.547,25.409 -0.799,1.545 -2.824,3.377 -4.5,4.071 -3.602,1.493 -3.607,1.526 -1.081,7.935 2.36,5.987 6.034,20.052 6.034,23.1 0,3.728 -3.129,9 -6.321,10.651 -4.433,2.292 -13.799,1.316 -20.945,-2.183 -12.34,-6.042 -23.617,-17.886 -38.713,-40.66 -8.298,-12.517 -10.284,-16.342 -13.501,-26 -2.075,-6.227 -3.988,-14.023 -4.251,-17.323 -0.456,-5.705 -0.303,-6.221 3.116,-10.5 4.181,-5.233 4.314,-6.528 1.576,-15.391 -2.305,-7.464 -4.918,-12.128 -16.159,-28.843 -9.926,-14.76 -11.27,-17.817 -9.8,-22.272 0.605,-1.834 2.653,-4.519 4.549,-5.965 1.897,-1.447 3.449,-2.957 3.449,-3.356 0,-0.399 -5.287,-2.727 -11.75,-5.172 -6.463,-2.446 -15.125,-5.913 -19.25,-7.705 -6.669,-2.898 -7.535,-3.067 -7.82,-1.528 -0.176,0.953 -1.025,3.646 -1.887,5.986 -1.186,3.219 -1.404,6.071 -0.892,11.712 0.606,6.687 0.465,7.668 -1.363,9.496 -3.822,3.822 -7.142,2.716 -15.705,-5.235 -4.308,-4 -10.685,-9.705 -14.172,-12.676 -6.078,-5.18 -6.312,-5.55 -5.697,-8.977 0.352,-1.966 0.73,-5.594 0.839,-8.064 l 0.197,-4.49 -5,-1.164 c -2.75,-0.64 -5.981,-1.207 -7.18,-1.26 -1.934,-0.085 -2.088,0.228 -1.36,2.765 M 704.5,344.882 c -12.317,5.913 -24.935,22.122 -22.859,29.362 1.151,4.013 5.495,7.177 9.691,7.058 3.584,-0.102 12.172,-4.028 17.412,-7.96 5.695,-4.274 14.256,-18.823 14.256,-24.227 0,-1.015 -0.933,-3.031 -2.073,-4.48 -2.863,-3.64 -8.507,-3.555 -16.427,0.247 m 358.573,-0.247 c -1.14,1.449 -2.073,3.465 -2.073,4.48 0,5.404 8.561,19.953 14.256,24.227 5.24,3.932 13.828,7.858 17.412,7.96 4.196,0.119 8.54,-3.045 9.691,-7.058 2.96,-10.321 -19.499,-32.241 -33.036,-32.243 -3.323,-10e-4 -4.602,0.538 -6.25,2.634 M 724.831,369.781 C 711.508,383.726 708,390.973 708,404.547 c 0,9.017 2.139,12.453 7.753,12.453 3.004,0 4.33,-0.776 7.929,-4.641 2.535,-2.722 4.777,-6.34 5.423,-8.75 0.605,-2.26 2.362,-7.934 3.903,-12.609 7.871,-23.867 8.054,-24.795 5.421,-27.429 -3.13,-3.129 -5.872,-1.877 -13.598,6.21 m 320.74,-6.21 c -2.633,2.634 -2.45,3.562 5.421,27.429 1.541,4.675 3.298,10.349 3.903,12.609 0.646,2.41 2.888,6.028 5.423,8.75 3.599,3.865 4.925,4.641 7.929,4.641 5.614,0 7.753,-3.436 7.753,-12.453 0,-13.574 -3.508,-20.821 -16.831,-34.766 -7.726,-8.087 -10.468,-9.339 -13.598,-6.21 M 789.578,408.75 c -9.87,31.751 -40.231,87.362 -74.378,136.232 l -10.118,14.481 4.441,1.745 c 5.932,2.33 10.583,5.384 18.977,12.462 3.85,3.246 10.375,8.394 14.5,11.439 9.647,7.123 15.712,13.928 20.561,23.07 3.578,6.747 3.882,7.948 3.879,15.321 -0.003,6.77 -0.433,8.846 -2.794,13.5 -3.616,7.129 -6.975,10.578 -12.273,12.602 -5.72,2.184 -9.801,1.328 -20.525,-4.307 -6.996,-3.676 -10.957,-6.798 -20.706,-16.317 -6.629,-6.475 -14.211,-13.489 -16.848,-15.589 -2.637,-2.099 -7.348,-6.195 -10.47,-9.103 -3.121,-2.907 -6.136,-5.286 -6.699,-5.286 -0.563,0 -3.634,3.644 -6.824,8.097 -3.191,4.453 -12.447,17.11 -20.569,28.125 -10.286,13.949 -14.475,20.383 -13.8,21.196 1.108,1.336 10.221,5.576 17.534,8.158 6.989,2.469 12.098,7.648 14.722,14.924 3.1,8.599 3.058,26.509 -0.082,34.657 -4.315,11.197 -9.033,15.841 -16.855,16.593 -8.801,0.846 -13.798,-2.937 -21.63,-16.374 -4.445,-7.627 -7.713,-9.376 -17.522,-9.376 -5.766,0 -7.475,-0.376 -9.099,-2 -1.1,-1.1 -2.609,-2 -3.354,-2 -1.386,0 -14.654,13.804 -41.328,43 -20.755,22.716 -48.958,49.447 -83.818,79.441 -13.77,11.848 -14.852,12.742 -17,14.031 -7.523,4.516 -7.558,4.551 -6.544,6.446 0.544,1.017 1.478,5.164 2.076,9.216 1.783,12.099 8.884,30.145 15.711,39.93 1.702,2.44 6.844,8.066 11.426,12.504 22.204,21.502 44.498,35.203 77.011,47.331 18.216,6.794 28.795,9.533 50.32,13.026 25.66,4.165 29.355,4.387 42.5,2.554 25.956,-3.619 83.538,-22.398 119.5,-38.972 8.845,-4.076 29.878,-12.584 35.782,-14.473 8.135,-2.603 27.588,-19.637 35.442,-31.034 1.705,-2.475 4.419,-5.635 6.031,-7.022 6.779,-5.833 9.213,-23.486 7.513,-54.478 l -0.768,-14 -2.854,4.5 c -3.727,5.876 -6.911,8.163 -12.196,8.759 -5.76,0.649 -12.669,-2.698 -16.508,-7.998 -3.685,-5.087 -7.632,-15.371 -13.48,-35.124 -4.617,-15.592 -4.661,-15.878 -4.313,-28.017 0.324,-11.307 0.586,-12.725 3.361,-18.15 6.684,-13.064 16.871,-16.14 32.385,-9.779 1.114,0.457 1.283,-0.311 0.84,-3.809 -2.581,-20.397 -5.235,-39.341 -7.756,-55.382 -1.643,-10.45 -4.581,-29.35 -6.528,-42 -1.948,-12.65 -6.69,-41.675 -10.538,-64.5 -7.387,-43.822 -11.93,-77.613 -16.572,-123.259 -2.453,-24.129 -3.053,-27.832 -4.582,-28.317 -0.967,-0.308 -1.759,-0.978 -1.759,-1.491 0,-0.513 -0.368,-0.933 -0.817,-0.933 -0.45,0 -1.622,2.587 -2.605,5.75 M 991,403.933 c 0,0.513 -0.792,1.183 -1.759,1.491 -1.529,0.485 -2.129,4.188 -4.582,28.317 -4.642,45.646 -9.185,79.437 -16.572,123.259 -3.848,22.825 -8.59,51.85 -10.538,64.5 -1.947,12.65 -4.885,31.55 -6.528,42 -2.521,16.041 -5.175,34.985 -7.756,55.382 -0.443,3.498 -0.274,4.266 0.84,3.809 15.514,-6.361 25.701,-3.285 32.385,9.779 2.775,5.425 3.037,6.843 3.361,18.15 0.348,12.139 0.304,12.425 -4.313,28.017 -5.848,19.753 -9.795,30.037 -13.48,35.124 -3.839,5.3 -10.748,8.647 -16.508,7.998 -5.285,-0.596 -8.469,-2.883 -12.196,-8.759 l -2.854,-4.5 -0.768,14 c -1.7,30.992 0.734,48.645 7.513,54.478 1.612,1.387 4.326,4.547 6.031,7.022 7.854,11.397 27.307,28.431 35.442,31.034 5.904,1.889 26.937,10.397 35.782,14.473 25.133,11.583 66.015,26.067 97.5,34.542 14.085,3.792 31.823,6.193 40,5.416 11.677,-1.11 42.289,-6.405 51.82,-8.962 22.543,-6.051 50.136,-17.945 67.18,-28.959 17.836,-11.526 37.194,-28.358 44.257,-38.48 6.827,-9.785 13.928,-27.831 15.711,-39.93 0.598,-4.052 1.532,-8.199 2.076,-9.216 1.014,-1.895 0.979,-1.93 -6.544,-6.446 -2.148,-1.289 -3.23,-2.183 -17,-14.031 -34.86,-29.994 -63.063,-56.725 -83.818,-79.441 -26.674,-29.196 -39.942,-43 -41.328,-43 -0.745,0 -2.254,0.9 -3.354,2 -1.624,1.624 -3.333,2 -9.099,2 -9.809,0 -13.077,1.749 -17.522,9.376 -7.832,13.437 -12.829,17.22 -21.63,16.374 -7.822,-0.752 -12.54,-5.396 -16.855,-16.593 -3.14,-8.148 -3.182,-26.058 -0.082,-34.657 2.624,-7.276 7.733,-12.455 14.722,-14.924 7.313,-2.582 16.426,-6.822 17.534,-8.158 0.675,-0.813 -3.514,-7.247 -13.8,-21.196 -8.122,-11.015 -17.378,-23.672 -20.569,-28.125 -3.19,-4.453 -6.261,-8.097 -6.824,-8.097 -0.563,0 -3.578,2.379 -6.699,5.286 -3.122,2.908 -7.833,7.004 -10.47,9.103 -2.637,2.1 -10.219,9.114 -16.848,15.589 -9.749,9.519 -13.71,12.641 -20.706,16.317 -10.724,5.635 -14.805,6.491 -20.525,4.307 -5.298,-2.024 -8.657,-5.473 -12.273,-12.602 -2.361,-4.654 -2.791,-6.73 -2.794,-13.5 0,-7.373 0.301,-8.574 3.879,-15.321 4.849,-9.142 10.914,-15.947 20.561,-23.07 4.125,-3.045 10.65,-8.193 14.5,-11.439 8.394,-7.078 13.045,-10.132 18.977,-12.462 l 4.441,-1.745 -10.118,-14.481 c -34.147,-48.87 -64.508,-104.481 -74.378,-136.232 -0.983,-3.163 -2.155,-5.75 -2.605,-5.75 -0.449,0 -0.817,0.42 -0.817,0.933 m -565.238,8.863 -18.738,8.561 0.601,5.108 c 0.388,3.306 0.025,7.352 -1.03,11.47 -0.896,3.5 -1.51,6.477 -1.363,6.615 0.148,0.139 5.418,2.884 11.713,6.101 10.582,5.408 11.748,6.297 15.47,11.791 2.474,3.654 4.636,8.447 5.61,12.444 l 1.585,6.5 8.361,2.897 c 16.225,5.62 22.985,4.626 21.523,-3.165 -0.726,-3.869 -9.236,-20.498 -13.321,-26.028 -3.48,-4.711 -5.077,-9.654 -5.129,-15.872 -0.059,-7.072 1.777,-11.043 8.143,-17.616 l 5.335,-5.508 -7.276,-2.654 c -5.037,-1.837 -8.119,-3.662 -10.011,-5.929 l -2.735,-3.275 -18.738,8.56 m 910.961,-5.315 c -1.858,2.328 -4.732,4.049 -9.93,5.945 l -7.315,2.668 5.335,5.508 c 6.366,6.573 8.202,10.544 8.143,17.616 -0.052,6.218 -1.649,11.161 -5.129,15.872 -4.085,5.53 -12.595,22.159 -13.321,26.028 -1.462,7.791 5.298,8.785 21.523,3.165 l 8.361,-2.897 1.585,-6.5 c 0.974,-3.997 3.136,-8.79 5.61,-12.444 3.722,-5.494 4.888,-6.383 15.47,-11.791 6.295,-3.217 11.565,-5.962 11.713,-6.101 0.147,-0.138 -0.467,-3.115 -1.363,-6.615 -1.055,-4.117 -1.418,-8.164 -1.03,-11.469 l 0.6,-5.106 -11.237,-5.123 c -6.181,-2.818 -14.65,-6.678 -18.819,-8.578 l -7.582,-3.455 -2.614,3.277 m -527.268,1.474 c -2.038,0.826 -2.039,0.864 -0.297,13.687 0.961,7.072 4.279,32.208 7.373,55.858 3.094,23.65 6.699,48.85 8.011,56 2.783,15.17 10.36,60.982 13.892,84 1.351,8.8 4.25,27.25 6.442,41 2.192,13.75 4.484,29.275 5.092,34.5 1.364,11.712 4.858,34.86 5.63,37.303 0.42,1.326 0.905,1.524 1.84,0.749 0.698,-0.58 2.348,-1.028 3.666,-0.997 1.318,0.032 4.196,-0.398 6.396,-0.954 9.361,-2.367 9.237,-2.364 11.335,-0.266 1.738,1.738 2.203,1.824 3.221,0.598 1.462,-1.762 5.296,-1.855 7.958,-0.192 1.581,0.987 2.391,0.987 3.972,0 2.662,-1.663 6.496,-1.57 7.958,0.192 1.018,1.226 1.483,1.14 3.221,-0.598 2.098,-2.098 1.974,-2.101 11.335,0.266 2.2,0.556 5.078,0.986 6.396,0.954 1.318,-0.031 2.968,0.417 3.666,0.997 0.935,0.775 1.42,0.577 1.84,-0.749 0.772,-2.443 4.266,-25.591 5.63,-37.303 0.608,-5.225 2.9,-20.75 5.092,-34.5 2.192,-13.75 5.091,-32.2 6.442,-41 3.532,-23.018 11.109,-68.83 13.892,-84 1.312,-7.15 4.917,-32.35 8.011,-56 3.094,-23.65 6.412,-48.784 7.372,-55.853 l 1.747,-12.853 -2.359,-0.897 c -3.386,-1.288 -3.382,-1.289 -9.844,3.101 -4.251,2.887 -6.917,3.998 -9.6,4 -2.431,0.001 -5.369,1.059 -8.5,3.06 -4.097,2.619 -5.4,2.969 -9.061,2.435 -3.336,-0.486 -5.012,-0.169 -7.618,1.442 -1.838,1.136 -4.244,2.065 -5.347,2.065 -3.396,0 -11.517,4.029 -16.554,8.212 -3.951,3.282 -5.27,3.86 -7.5,3.285 -1.488,-0.384 -5.18,-0.698 -8.205,-0.698 -3.025,0 -6.717,0.314 -8.205,0.698 -2.23,0.575 -3.549,-0.003 -7.5,-3.285 -5.037,-4.183 -13.158,-8.212 -16.554,-8.212 -1.103,0 -3.509,-0.929 -5.347,-2.065 -2.606,-1.611 -4.282,-1.928 -7.618,-1.442 -3.661,0.534 -4.964,0.184 -9.061,-2.435 -3.131,-2.001 -6.069,-3.059 -8.5,-3.06 -2.683,-0.002 -5.349,-1.113 -9.6,-4 -6.162,-4.186 -6.838,-4.389 -10.16,-3.043 m 45.14,179.593 c -0.915,0.914 -1.444,2.403 -1.176,3.307 0.268,0.905 1.184,4.713 2.036,8.464 2.029,8.937 2.704,10.041 7.752,12.672 2.342,1.221 5.21,3.246 6.372,4.499 1.407,1.519 3.831,2.516 7.262,2.988 4.63,0.637 5.459,0.447 8.231,-1.885 2.148,-1.807 4.247,-2.593 6.928,-2.593 2.681,0 4.78,0.786 6.928,2.593 2.772,2.332 3.601,2.522 8.231,1.885 3.431,-0.472 5.855,-1.469 7.262,-2.988 1.162,-1.253 4.03,-3.278 6.372,-4.499 2.343,-1.221 4.693,-3.031 5.224,-4.022 1.475,-2.757 4.865,-18.113 4.315,-19.547 -0.723,-1.883 -3.228,-2.548 -5.339,-1.418 -1.024,0.548 -2.759,0.996 -3.856,0.996 -1.097,0 -2.669,0.675 -3.494,1.5 -0.825,0.825 -2.509,1.5 -3.743,1.5 -1.233,0 -3.087,0.764 -4.119,1.698 -2.335,2.114 -4.579,2.481 -7.055,1.155 -2.856,-1.528 -6.601,-0.2 -7.301,2.59 -0.657,2.619 -2.605,3.809 -4.835,2.953 -0.775,-0.297 -1.682,-1.626 -2.015,-2.953 -0.7,-2.79 -4.445,-4.118 -7.301,-2.59 -2.476,1.326 -4.72,0.959 -7.055,-1.155 -1.032,-0.934 -3.041,-1.698 -4.464,-1.698 -1.424,0 -2.746,-0.474 -2.939,-1.053 -0.193,-0.579 -1.918,-1.427 -3.834,-1.885 -1.915,-0.457 -4.211,-1.134 -5.103,-1.504 -0.951,-0.395 -2.309,0.015 -3.284,0.99 m -484.677,34.38 c -2.894,2.894 -2.918,3.016 -2.927,14.745 -0.01,13.281 -2.851,28.303 -7.393,39.093 -4.725,11.226 -3.347,14.468 8.139,19.156 9.791,3.996 16.591,8.686 24.557,16.937 6.549,6.784 9.47,11.839 11.764,20.355 1.899,7.055 5.729,13.625 8.898,15.263 9.481,4.903 20.362,-1.794 37.214,-22.907 3.482,-4.362 6.864,-8.102 7.516,-8.312 0.653,-0.21 1.859,0.658 2.682,1.93 2.127,3.289 0.569,15.137 -3.294,25.05 -4.286,10.997 -4.89,18.716 -2.167,27.681 1.85,6.09 2.757,7.549 6.277,10.1 5.165,3.741 9.374,3.849 20.264,0.52 10.443,-3.193 22.576,-9.455 35.052,-18.091 23.227,-16.079 67.595,-66.664 80.161,-91.392 3.499,-6.886 3.835,-8.245 3.79,-15.327 -0.071,-11.428 -0.281,-11.566 -20.062,-13.24 -8.739,-0.74 -19.939,-2.227 -24.889,-3.307 -4.95,-1.079 -15.075,-2.73 -22.5,-3.668 -28.984,-3.665 -51.133,-6.692 -65.5,-8.95 -19.247,-3.026 -34.483,-4.493 -52,-5.007 -7.7,-0.226 -16.25,-0.862 -19,-1.413 -2.75,-0.551 -9.199,-1.257 -14.332,-1.568 -9.297,-0.564 -9.343,-0.555 -12.25,2.352 m 1025.93,-1.902 c -5.308,0.404 -10.153,1.044 -10.766,1.423 -0.613,0.379 -7.744,0.877 -15.848,1.106 -18.198,0.515 -33.242,1.944 -52.734,5.009 -14.367,2.258 -36.516,5.285 -65.5,8.95 -7.425,0.938 -17.55,2.589 -22.5,3.668 -4.95,1.08 -16.15,2.567 -24.889,3.307 -19.781,1.674 -19.991,1.812 -20.062,13.24 -0.045,7.082 0.291,8.441 3.79,15.327 12.566,24.728 56.934,75.313 80.161,91.392 12.476,8.636 24.609,14.898 35.052,18.091 10.89,3.329 15.099,3.221 20.264,-0.52 3.52,-2.551 4.427,-4.01 6.277,-10.1 2.723,-8.965 2.119,-16.684 -2.167,-27.681 -3.863,-9.913 -5.421,-21.761 -3.294,-25.05 0.823,-1.272 2.029,-2.14 2.682,-1.93 0.652,0.21 4.034,3.95 7.516,8.312 16.852,21.113 27.733,27.81 37.214,22.907 3.169,-1.638 6.999,-8.208 8.898,-15.263 2.294,-8.516 5.215,-13.571 11.764,-20.355 7.966,-8.251 14.766,-12.941 24.557,-16.937 11.486,-4.688 12.864,-7.93 8.139,-19.156 -4.542,-10.79 -7.383,-25.812 -7.393,-39.093 -0.01,-11.733 -0.032,-11.85 -2.932,-14.75 -1.985,-1.985 -3.831,-2.876 -5.75,-2.778 -1.555,0.08 -7.17,0.477 -12.479,0.881 m -547.893,7.718 c -2.495,1.748 -2.479,4.945 0.045,8.756 1.093,1.65 1.99,3.997 1.993,5.216 0.004,1.218 1.291,3.529 2.861,5.134 1.72,1.76 3.105,4.495 3.488,6.884 1.304,8.159 7.464,11.871 11.398,6.87 1.828,-2.324 1.954,-2.343 4.217,-0.637 1.283,0.968 3.28,3.734 4.438,6.146 1.459,3.042 2.82,4.488 4.437,4.717 2.507,0.355 6.168,-2.296 6.168,-4.466 0,-0.729 1.125,-1.608 2.5,-1.953 3.278,-0.823 7.5,0.277 7.5,1.953 0,2.17 3.661,4.821 6.168,4.466 1.617,-0.229 2.978,-1.675 4.437,-4.717 1.158,-2.412 3.155,-5.178 4.438,-6.146 2.263,-1.706 2.389,-1.687 4.217,0.637 3.934,5.001 10.094,1.289 11.398,-6.87 0.383,-2.389 1.768,-5.124 3.488,-6.884 1.57,-1.605 2.857,-3.916 2.861,-5.134 0,-1.219 0.9,-3.566 1.993,-5.216 2.378,-3.591 2.557,-6.793 0.475,-8.521 -1.895,-1.572 -9.552,-2.111 -11.181,-0.787 -0.664,0.539 -1.679,0.688 -2.256,0.331 -1.139,-0.704 -6.847,0.841 -11.369,3.077 -1.557,0.77 -3.669,1.4 -4.693,1.4 -1.025,0 -2.451,0.787 -3.169,1.75 -1.1,1.473 -2.971,1.75 -11.807,1.75 -8.836,0 -10.707,-0.277 -11.807,-1.75 -0.718,-0.963 -2.144,-1.75 -3.169,-1.75 -1.024,0 -3.136,-0.63 -4.693,-1.4 -4.457,-2.204 -10.224,-3.784 -11.325,-3.104 -0.553,0.342 -1.568,0.258 -2.256,-0.187 -2.029,-1.313 -8.682,-1.045 -10.795,0.435 m 8.628,45.122 c -0.294,0.476 -1.665,0.65 -3.047,0.386 -3.873,-0.741 -4.084,1.749 -1.106,13.052 5.225,19.831 6.2,21.696 11.339,21.696 1.045,0 3.103,1.35 4.573,3 2.703,3.033 6.914,4.014 8.212,1.912 0.415,-0.671 1.972,0.289 4.057,2.5 3.993,4.233 5.628,4.44 8.934,1.133 l 2.455,-2.454 2.455,2.454 c 3.306,3.307 4.941,3.1 8.934,-1.133 2.085,-2.211 3.642,-3.171 4.057,-2.5 1.298,2.102 5.509,1.121 8.212,-1.912 1.47,-1.65 3.528,-3 4.573,-3 5.139,0 6.114,-1.865 11.339,-21.696 2.978,-11.303 2.767,-13.793 -1.106,-13.052 -1.382,0.264 -2.753,0.09 -3.047,-0.386 -0.294,-0.476 -1.868,-0.866 -3.497,-0.866 -2.19,0 -3.26,0.652 -4.102,2.5 -0.877,1.924 -1.892,2.5 -4.406,2.5 -2.294,0 -3.853,0.745 -5.233,2.5 -2.201,2.797 -3.179,3.153 -3.179,1.155 0,-1.936 -3.315,-4.655 -5.674,-4.655 -1.109,0 -2.831,0.9 -3.826,2 -1.187,1.312 -3.08,2 -5.5,2 -2.42,0 -4.313,-0.688 -5.5,-2 -0.995,-1.1 -2.795,-2 -4,-2 -2.291,0 -5.5,2.818 -5.5,4.829 0,1.827 -1.038,1.393 -3.179,-1.329 -1.38,-1.755 -2.939,-2.5 -5.233,-2.5 -2.514,0 -3.529,-0.576 -4.406,-2.5 -0.842,-1.848 -1.912,-2.5 -4.102,-2.5 -1.629,0 -3.203,0.39 -3.497,0.866 m -142.975,64.176 c -11.109,3.27 -20.987,8.272 -23.843,12.071 -5.091,6.776 -8.755,15.7 -10.37,25.255 -2.297,13.594 -0.728,38.212 3.035,47.632 6.826,17.087 10.842,22.415 22.875,30.35 10.156,6.698 13.13,7.664 24.384,7.923 8.535,0.196 9.316,0.029 16.569,-3.556 9.005,-4.45 13.821,-9.473 19.147,-19.966 3.157,-6.218 4.157,-9.943 6.655,-24.769 4.786,-28.406 3.679,-43.604 -4.039,-55.449 -2.211,-3.395 -4.021,-7.116 -4.021,-8.269 0,-2.276 -5.921,-7.523 -10.421,-9.234 -1.49,-0.567 -5.126,-1.03 -8.079,-1.03 -2.953,0 -6.581,-0.461 -8.062,-1.023 -5.545,-2.109 -16.549,-2.079 -23.83,0.065 m 336.892,-0.893 c -2.2,0.506 -7.626,1.274 -12.058,1.708 -4.432,0.433 -8.707,1.168 -9.5,1.633 -4.685,2.747 -8.942,6.924 -8.942,8.774 0,1.153 -1.81,4.874 -4.021,8.269 -7.718,11.845 -8.825,27.043 -4.039,55.449 2.498,14.826 3.498,18.551 6.655,24.769 5.326,10.493 10.142,15.516 19.147,19.966 7.253,3.585 8.034,3.752 16.569,3.556 11.254,-0.259 14.228,-1.225 24.384,-7.923 12.033,-7.935 16.049,-13.263 22.875,-30.35 3.763,-9.42 5.332,-34.038 3.035,-47.632 -1.615,-9.555 -5.279,-18.479 -10.37,-25.255 -2.957,-3.935 -13.046,-8.945 -24.282,-12.059 -7.841,-2.173 -12.91,-2.408 -19.453,-0.905 M 579,750.948 c -10.685,11.166 -18.994,26.656 -23.094,43.052 -2.075,8.301 -2.353,11.583 -2.196,26 0.541,49.754 6.064,60.397 31.368,60.456 6.778,0.016 8.391,-0.384 15.265,-3.781 8.768,-4.333 13.577,-9.729 18.478,-20.735 3.973,-8.921 5.699,-15.996 8.226,-33.726 1.805,-12.665 2.093,-18.237 1.679,-32.5 -0.755,-25.989 -3.926,-33.599 -17.204,-41.289 -4.593,-2.66 -5.832,-2.896 -16,-3.053 l -11.022,-0.171 -5.5,5.747 m 597.953,-4.578 c -4.97,1.758 -12.414,7.065 -14.996,10.69 -4.541,6.378 -6.155,14.26 -6.686,32.654 -0.731,25.366 3.092,50.921 9.908,66.226 4.901,11.006 9.71,16.402 18.478,20.735 6.874,3.397 8.487,3.797 15.265,3.781 25.304,-0.059 30.827,-10.702 31.368,-60.456 0.157,-14.417 -0.121,-17.699 -2.196,-26 -4.013,-16.047 -12.06,-31.198 -22.734,-42.805 l -5.141,-5.59 -9.859,-0.244 c -5.987,-0.149 -11.253,0.248 -13.407,1.009 m -316.883,7.308 c -0.038,0.647 0.352,4.472 0.867,8.5 0.516,4.027 1.227,10.359 1.58,14.072 l 0.642,6.75 h 5.198 c 4.563,0 5.531,0.379 7.922,3.105 2.498,2.846 3.078,3.048 6.973,2.425 2.336,-0.373 6.273,-0.679 8.748,-0.679 2.475,0 6.412,0.306 8.748,0.679 3.895,0.623 4.475,0.421 6.973,-2.425 2.391,-2.726 3.359,-3.105 7.922,-3.105 h 5.198 l 0.645,-6.75 c 0.354,-3.713 1.093,-10.285 1.641,-14.605 1.119,-8.817 0.764,-10.562 -0.971,-4.77 -1.521,5.077 -3.369,6.532 -7.294,5.747 -1.723,-0.344 -4.816,-0.173 -6.873,0.381 -2.978,0.802 -3.858,1.593 -4.316,3.882 -0.844,4.219 -3.442,6.432 -6.581,5.605 -1.426,-0.376 -3.717,-0.684 -5.092,-0.684 -1.375,0 -3.666,0.308 -5.092,0.684 -3.137,0.826 -5.737,-1.386 -6.579,-5.597 -0.449,-2.245 -1.352,-3.081 -4.163,-3.858 -1.975,-0.545 -5.204,-0.733 -7.176,-0.417 -4.115,0.658 -5.248,-0.293 -7.422,-6.223 -0.785,-2.142 -1.459,-3.365 -1.498,-2.717 m 5.206,74.83 c 0.161,27.117 -0.64,35.509 -4.176,43.759 -1.843,4.3 -1.843,4.412 0.009,5.569 1.04,0.65 1.891,2.311 1.891,3.692 0,2.148 0.345,2.423 2.391,1.91 1.352,-0.339 2.699,-0.102 3.099,0.546 0.503,0.814 1.247,0.659 2.569,-0.537 2.567,-2.323 6.718,-1.185 7.533,2.065 0.343,1.365 1.812,3.046 3.266,3.735 1.504,0.713 3.657,3.299 4.998,6.003 1.968,3.967 2.816,4.75 5.144,4.75 2.328,0 3.176,-0.783 5.144,-4.75 1.341,-2.704 3.494,-5.29 4.998,-6.003 1.454,-0.689 2.923,-2.37 3.266,-3.735 0.815,-3.25 4.966,-4.388 7.533,-2.065 1.322,1.196 2.066,1.351 2.569,0.537 0.4,-0.648 1.747,-0.885 3.099,-0.546 2.046,0.513 2.391,0.238 2.391,-1.91 0,-1.381 0.851,-3.042 1.891,-3.692 1.852,-1.157 1.852,-1.269 0.01,-5.569 -3.536,-8.25 -4.337,-16.642 -4.176,-43.759 l 0.155,-25.992 -2.598,4.725 c -3.043,5.533 -4.616,6.253 -9.884,4.527 -3.831,-1.255 -3.916,-1.228 -5.395,1.728 -1.469,2.938 -1.667,3.004 -9.002,3.004 -7.335,0 -7.533,-0.066 -9.002,-3.004 -1.479,-2.956 -1.564,-2.983 -5.395,-1.728 -5.268,1.726 -6.841,1.006 -9.884,-4.527 l -2.598,-4.725 0.155,25.992"
     stroke="none"
     fill="#000000"
     fill-rule="evenodd"
     id="path1" />
</svg>
